Coordinates
version=1
nRows=21
nColumns=22
inDegrees=yes

Units are S.I. units (second, meters, Newtons, ...)
If the header above contains a line with 'inDegrees', this indicates whether rotational values are in degrees (yes) or radians (no).

endheader
time	pelvis_tilt	pelvis_list	pelvis_rotation	pelvis_tx	pelvis_ty	pelvis_tz	hip_flexion_r	hip_adduction_r	hip_rotation_r	knee_angle_r	ankle_angle_r	subtalar_angle_r	hip_flexion_l	hip_adduction_l	hip_rotation_l	knee_angle_l	ankle_angle_l	subtalar_angle_l	lumbar_extension	lumbar_bending	lumbar_rotation
      1.22000000	      5.28549130	     -2.44658421	      3.53814851	     -1.35714603	      0.94975535	      0.06727760	     -2.74936251	      4.24031104	     -8.75451493	    -16.37522098	     14.06656152	     -2.56776846	     -3.14031615	     -3.95072460	    -10.70965535	    -18.77397828	     24.15417165	     -5.22290104	    -11.30258168	      3.63917916	    -10.50310439
      1.23000000	      5.25655316	     -2.44016544	      3.44254431	     -1.35514227	      0.94947704	      0.06872129	     -2.84519509	      4.31781437	     -8.66137065	    -16.38001215	     14.15270126	     -2.51905513	     -3.25001102	     -4.02264572	    -10.70893741	    -18.78845875	     24.18776459	     -5.22950083	    -11.36814211	      3.62792842	    -10.47153688
      1.24000000	      5.21614014	     -2.43751213	      3.36131909	     -1.35315744	      0.94915607	      0.07020072	     -2.91497092	      4.39861381	     -8.60440703	    -16.41138252	     14.20244095	     -2.49809829	     -3.29909458	     -4.10132844	    -10.63233439	    -18.88635643	     24.20340281	     -5.23421489	    -11.43307627	      3.61659583	    -10.44807620
      1.25000000	      5.20287014	     -2.48550672	      3.27699544	     -1.35103171	      0.94884615	      0.07176125	     -3.06731359	      4.55294555	     -8.48694360	    -16.34886535	     14.30927040	     -2.44720758	     -3.35228723	     -4.24950169	    -10.57258697	    -19.04806843	     24.28000916	     -5.26915113	    -11.50845603	      3.66178967	    -10.42572526
      1.26000000	      5.19067922	     -2.54300239	      3.20127795	     -1.34891419	      0.94851331	      0.07336532	     -3.21732048	      4.71898595	     -8.39109897	    -16.29257788	     14.37000663	     -2.40785346	     -3.34606959	     -4.41249993	    -10.44363820	    -19.32043999	     24.34000931	     -5.33116201	    -11.59841676	      3.71249233	    -10.39101736
      1.27000000	      5.17532011	     -2.62475540	      3.13547318	     -1.34676643	      0.94815287	      0.07500787	     -3.37958449	      4.91652697	     -8.30029642	    -16.20640118	     14.42632750	     -2.37767498	     -3.27225160	     -4.60731771	    -10.25388630	    -19.71307240	     24.40564432	     -5.43698522	    -11.68861842	      3.78804405	    -10.35700556
      1.28000000	      5.13414500	     -2.73932143	      3.08850998	     -1.34459717	      0.94772295	      0.07667286	     -3.51960312	      5.15384670	     -8.22192020	    -16.10912005	     14.41199005	     -2.35469063	     -3.08096853	     -4.84366808	    -10.00009770	    -20.27100956	     24.56309450	     -5.71525498	    -11.74674516	      3.89900515	    -10.31648631
      1.29000000	      5.09667208	     -2.86389801	      3.05790356	     -1.34240956	      0.94729227	      0.07834426	     -3.67868388	      5.40574518	     -8.15770695	    -15.98732690	     14.45761232	     -2.35453502	     -2.81808187	     -5.09132526	     -9.66702846	    -20.96382416	     24.65434513	     -5.97013219	    -11.81794046	      4.02322675	    -10.28241289
      1.30000000	      5.03904599	     -3.00624229	      3.04069284	     -1.34023112	      0.94682627	      0.08002852	     -3.81956272	      5.67796641	     -8.11232793	    -15.85647177	     14.49139152	     -2.36754520	     -2.43819578	     -5.35752752	     -9.26549092	    -21.82503957	     24.73652238	     -6.30037267	    -11.87317418	      4.16554816	    -10.23697784
      1.31000000	      4.99043094	     -3.15702285	      3.04778302	     -1.33804936	      0.94636880	      0.08169058	     -3.98303252	      5.96260868	     -8.08052209	    -15.70503837	     14.51761236	     -2.37962684	     -1.96492370	     -5.63366725	     -8.79246727	    -22.87211004	     24.79387512	     -6.62769412	    -11.94670722	      4.32161243	    -10.19099482
      1.32000000	      4.90671948	     -3.31710900	      3.07252107	     -1.33593434	      0.94586181	      0.08334026	     -4.10617326	      6.25599871	     -8.08229398	    -15.54800828	     14.53194301	     -2.39053190	     -1.33295892	     -5.91048836	     -8.22788597	    -24.12643948	     24.81251541	     -7.05442682	    -12.00063833	      4.48595754	    -10.13327706
      1.33000000	      4.81873679	     -3.47763130	      3.11996338	     -1.33384372	      0.94535488	      0.08495543	     -4.23480059	      6.55079331	     -8.10568255	    -15.37262174	     14.54448314	     -2.38800135	     -0.57922657	     -6.17815388	     -7.57896142	    -25.58437204	     24.75658288	     -7.52065839	    -12.06144000	      4.65316855	    -10.06788865
      1.34000000	      4.68563277	     -3.63249228	      3.17687418	     -1.33181023	      0.94479288	      0.08652745	     -4.30604937	      6.82978138	     -8.17281918	    -15.20609565	     14.58767538	     -2.36340327	      0.34833159	     -6.41743095	     -6.84227718	    -27.25784380	     24.60383141	     -8.12959723	    -12.08672786	      4.81199413	     -9.94843495
      1.35000000	      4.58496874	     -3.79363372	      3.27194996	     -1.32982354	      0.94428129	      0.08803493	     -4.43661118	      7.12540759	     -8.22623804	    -14.98558110	     14.55040700	     -2.32315772	      1.37020858	     -6.64976038	     -6.02630636	    -29.13982859	     24.40921424	     -8.63252552	    -12.17027260	      4.98588120	     -9.88737732
      1.36000000	      4.41731944	     -3.93649824	      3.35280568	     -1.32787206	      0.94368133	      0.08950094	     -4.47233084	      7.38282083	     -8.32953739	    -14.80471297	     14.61390644	     -2.24424883	      2.57252960	     -6.82489245	     -5.16476105	    -31.19793028	     24.08358478	     -9.30657640	    -12.18937915	      5.13260636	     -9.71789853
      1.37000000	      4.28467501	     -4.07390566	      3.45050028	     -1.32591071	      0.94314355	      0.09089802	     -4.56628190	      7.63798102	     -8.41961163	    -14.58608859	     14.61113641	     -2.15925381	      3.82660765	     -6.96440252	     -4.25882632	    -33.37913758	     23.70748542	     -9.86302186	    -12.26094211	      5.27775144	     -9.56031495
      1.38000000	      4.16314629	     -4.18825418	      3.54633948	     -1.32394385	      0.94263424	      0.09221210	     -4.66580113	      7.86290345	     -8.49150872	    -14.38473131	     14.60323378	     -2.06513215	      5.13977337	     -7.03975093	     -3.34041762	    -35.64181447	     23.26514574	    -10.35740354	    -12.35886119	      5.40492697	     -9.39415239
      1.39000000	      4.03530864	     -4.27087130	      3.62294430	     -1.32191823	      0.94214218	      0.09346353	     -4.75931449	      8.04374942	     -8.57228573	    -14.19173107	     14.64086952	     -1.95622802	      6.49605437	     -7.03899337	     -2.44561609	    -37.91188063	     22.76580923	    -10.81364797	    -12.45442313	      5.49312535	     -9.16846974
      1.40000000	      3.91519447	     -4.31453881	      3.67575498	     -1.31981967	      0.94169752	      0.09464633	     -4.86149043	      8.17247600	     -8.65305464	    -14.01181227	     14.69860793	     -1.84036086	      7.85425491	     -6.95582247	     -1.59712379	    -40.12376790	     22.26139910	    -11.18500280	    -12.56727985	      5.53747951	     -8.90436567
      1.41000000	      3.80551380	     -4.31556722	      3.70860700	     -1.31762895	      0.94131817	      0.09573446	     -4.97759242	      8.24707371	     -8.72459767	    -13.84596598	     14.76504781	     -1.72474859	      9.19375826	     -6.78528252	     -0.80620330	    -42.21874234	     21.78624908	    -11.42951366	    -12.69501176	      5.53673336	     -8.61689703
      1.42000000	      3.71102674	     -4.27025660	      3.72357371	     -1.31531232	      0.94102951	      0.09672833	     -5.13222523	      8.26556113	     -8.78585985	    -13.65929749	     14.82318310	     -1.62316911	     10.48957965	     -6.53148885	     -0.09454474	    -44.13694859	     21.36161356	    -11.51925965	    -12.84099528	      5.48822192	     -8.31634439
